HIERARCHY
ROOT hip
{
  OFFSET 0.00112043 5.09927 -9.65472
  CHANNELS 6 Xposition Yposition Zposition Zrotation Xrotation Yrotation
  JOINT abdomen
  {
    OFFSET 0 -1.186 -1.5018
    CHANNELS 3 Zrotation Xrotation Yrotation
    JOINT abdomen2
    {
      OFFSET 0 9.964 0.2134
      CHANNELS 3 Zrotation Xrotation Yrotation
      JOINT chest
      {
        OFFSET 0 13.134 -3.2573
        CHANNELS 3 Zrotation Xrotation Yrotation
        JOINT neck
        {
          OFFSET 0 20.686 -1.6905
          CHANNELS 3 Zrotation Xrotation Yrotation
          JOINT head
          {
            OFFSET 0 7.238 -0.1237
            CHANNELS 3 Zrotation Xrotation Yrotation
            End Site
            {
              OFFSET 0 0 0
            }
          }
        }
        JOINT lCollar
        {
          OFFSET 1.7069 20.075 5.0056
          CHANNELS 3 Zrotation Xrotation Yrotation
          JOINT lShldr
          {
            OFFSET 13.6458 -0.047 -4.849
            CHANNELS 3 Zrotation Xrotation Yrotation
            JOINT lForeArm
            {
              OFFSET 28.3255 -0.9759 2.2888
              CHANNELS 3 Zrotation Xrotation Yrotation
              JOINT lHand
              {
                OFFSET 22.1583 -0.53 10.8316
                CHANNELS 3 Zrotation Xrotation Yrotation
                JOINT lThumb1
                {
                  OFFSET 0.786 0.112 2.5817
                  CHANNELS 3 Zrotation Xrotation Yrotation
                  JOINT lThumb2
                  {
                    OFFSET 0.3601 -0.878 4.2331
                    CHANNELS 3 Zrotation Xrotation Yrotation
                    JOINT lThumb2_End
                    {
                      OFFSET 1.8127 -1.216 2.2227
                      CHANNELS 3 Zrotation Xrotation Yrotation
                      End Site
                      {
                        OFFSET 0.0181 -0.0122 0.0222
                      }
                    }
                  }
                }
                JOINT lCarpal1
                {
                  OFFSET 0.9571 1.114 1.7695
                  CHANNELS 3 Zrotation Xrotation Yrotation
                  JOINT lIndex1
                  {
                    OFFSET 4.1246 0.487 4.1451
                    CHANNELS 3 Zrotation Xrotation Yrotation
                    JOINT lIndex2
                    {
                      OFFSET 3.4052 -1.454 2.7682
                      CHANNELS 3 Zrotation Xrotation Yrotation
                      JOINT lIndex2_End
                      {
                        OFFSET 1.4531 -1.795 1.2713
                        CHANNELS 3 Zrotation Xrotation Yrotation
                        End Site
                        {
                          OFFSET 0.0145 -0.0179 0.0127
                        }
                      }
                    }
                  }
                  JOINT lMid1
                  {
                    OFFSET 5.6954 0.21 2.1184
                    CHANNELS 3 Zrotation Xrotation Yrotation
                    JOINT lMid2
                    {
                      OFFSET 3.9766 -1.54 2.3863
                      CHANNELS 3 Zrotation Xrotation Yrotation
                      JOINT lMid2_End
                      {
                        OFFSET 1.4042 -1.926 1.125
                        CHANNELS 3 Zrotation Xrotation Yrotation
                        End Site
                        {
                          OFFSET 0.014 -0.0193 0.0113
                        }
                      }
                    }
                  }
                }
                JOINT lCarpal2
                {
                  OFFSET 2.0956 0.66 -0.3894
                  CHANNELS 3 Zrotation Xrotation Yrotation
                  JOINT lRing1
                  {
                    OFFSET 5.0395 -0.09 2.4971
                    CHANNELS 3 Zrotation Xrotation Yrotation
                    JOINT lRing2
                    {
                      OFFSET 3.7921 -1.552 1.4806
                      CHANNELS 3 Zrotation Xrotation Yrotation
                      JOINT lRing2_End
                      {
                        OFFSET 1.4655 -1.808 0.9609
                        CHANNELS 3 Zrotation Xrotation Yrotation
                        End Site
                        {
                          OFFSET 0.0147 -0.0181 0.0096
                        }
                      }
                    }
                  }
                  JOINT lPinky1
                  {
                    OFFSET 4.9141 -1.269 0.3591
                    CHANNELS 3 Zrotation Xrotation Yrotation
                    JOINT lPinky2
                    {
                      OFFSET 3.1477 -1.685 0.8462
                      CHANNELS 3 Zrotation Xrotation Yrotation
                      JOINT lPinky2_End
                      {
                        OFFSET 0.8055 -1.585 0.7955
                        CHANNELS 3 Zrotation Xrotation Yrotation
                        End Site
                        {
                          OFFSET 0.0081 -0.0158 0.008
                        }
                      }
                    }
                  }
                }
              }
            }
          }
        }
        JOINT rCollar
        {
          OFFSET -1.7069 20.075 5.0056
          CHANNELS 3 Zrotation Xrotation Yrotation
          JOINT rShldr
          {
            OFFSET -13.6458 -0.047 -4.849
            CHANNELS 3 Zrotation Xrotation Yrotation
            JOINT rForeArm
            {
              OFFSET -28.3255 -0.9759 2.2888
              CHANNELS 3 Zrotation Xrotation Yrotation
              JOINT rHand
              {
                OFFSET -22.1583 -0.53 10.8316
                CHANNELS 3 Zrotation Xrotation Yrotation
                JOINT rThumb1
                {
                  OFFSET -0.786 0.112 2.5817
                  CHANNELS 3 Zrotation Xrotation Yrotation
                  JOINT rThumb2
                  {
                    OFFSET -0.3601 -0.878 4.2331
                    CHANNELS 3 Zrotation Xrotation Yrotation
                    JOINT rThumb2_End
                    {
                      OFFSET -1.8127 -1.216 2.2227
                      CHANNELS 3 Zrotation Xrotation Yrotation
                      End Site
                      {
                        OFFSET -0.0181 -0.0122 0.0222
                      }
                    }
                  }
                }
                JOINT rCarpal1
                {
                  OFFSET -0.9571 1.114 1.7695
                  CHANNELS 3 Zrotation Xrotation Yrotation
                  JOINT rIndex1
                  {
                    OFFSET -4.1246 0.487 4.1451
                    CHANNELS 3 Zrotation Xrotation Yrotation
                    JOINT rIndex2
                    {
                      OFFSET -3.4052 -1.454 2.7682
                      CHANNELS 3 Zrotation Xrotation Yrotation
                      JOINT rIndex2_End
                      {
                        OFFSET -1.4531 -1.795 1.2713
                        CHANNELS 3 Zrotation Xrotation Yrotation
                        End Site
                        {
                          OFFSET -0.0145 -0.018 0.0127
                        }
                      }
                    }
                  }
                  JOINT rMid1
                  {
                    OFFSET -5.6954 0.21 2.1184
                    CHANNELS 3 Zrotation Xrotation Yrotation
                    JOINT rMid2
                    {
                      OFFSET -3.9766 -1.54 2.3863
                      CHANNELS 3 Zrotation Xrotation Yrotation
                      JOINT rMid2_End
                      {
                        OFFSET -1.4042 -1.926 1.125
                        CHANNELS 3 Zrotation Xrotation Yrotation
                        End Site
                        {
                          OFFSET -0.014 -0.0193 0.0113
                        }
                      }
                    }
                  }
                }
                JOINT rCarpal2
                {
                  OFFSET -2.0956 0.66 -0.3894
                  CHANNELS 3 Zrotation Xrotation Yrotation
                  JOINT rRing1
                  {
                    OFFSET -5.0395 -0.09 2.4971
                    CHANNELS 3 Zrotation Xrotation Yrotation
                    JOINT rRing2
                    {
                      OFFSET -3.7921 -1.552 1.4806
                      CHANNELS 3 Zrotation Xrotation Yrotation
                      JOINT rRing2_End
                      {
                        OFFSET -1.4655 -1.808 0.9609
                        CHANNELS 3 Zrotation Xrotation Yrotation
                        End Site
                        {
                          OFFSET -0.0147 -0.0181 0.0096
                        }
                      }
                    }
                  }
                  JOINT rPinky1
                  {
                    OFFSET -4.9141 -1.269 0.3592
                    CHANNELS 3 Zrotation Xrotation Yrotation
                    JOINT rPinky2
                    {
                      OFFSET -3.1477 -1.685 0.8462
                      CHANNELS 3 Zrotation Xrotation Yrotation
                      JOINT rPinky2_End
                      {
                        OFFSET -0.8055 -1.585 0.7955
                        CHANNELS 3 Zrotation Xrotation Yrotation
                        End Site
                        {
                          OFFSET -0.0081 -0.0158 0.008
                        }
                      }
                    }
                  }
                }
              }
            }
          }
        }
      }
    }
  }
  JOINT lThigh
  {
    OFFSET 8.367 -8.2066 0.5982
    CHANNELS 3 Zrotation Xrotation Yrotation
    JOINT lShin
    {
      OFFSET 2.1923 -43.463 -0.4932
      CHANNELS 3 Zrotation Xrotation Yrotation
      JOINT lFoot
      {
        OFFSET 0.7333 -45.8593 -2.6451
        CHANNELS 3 Zrotation Xrotation Yrotation
        End Site
        {
          OFFSET 2.6618 -4.2699 12.3931
        }
      }
    }
  }
  JOINT rThigh
  {
    OFFSET -8.367 -8.2066 0.5982
    CHANNELS 3 Zrotation Xrotation Yrotation
    JOINT rShin
    {
      OFFSET -2.1923 -43.463 -0.4931
      CHANNELS 3 Zrotation Xrotation Yrotation
      JOINT rFoot
      {
        OFFSET -0.7333 -45.8593 -2.6451
        CHANNELS 3 Zrotation Xrotation Yrotation
        End Site
        {
          OFFSET -2.6618 -4.2699 12.3931
        }
      }
    }
  }
}
MOTION
Frames:	4
Frame Time:	0.0333333
0 91.7903 2.51682 0 0 -0 0 0 -0 0 0 -0 0 0 -0 0 0 -0 -0 0 0.00140347 0 0 -0 1.66051 0.0835086 5.75766 -0.0175111 0.895433 15.7816 7.95139e-016 -1.98785e-016 -0 5.46658e-016 -3.97569e-016 -0 5.96354e-016 0 -0 3.97569e-016 1.98785e-016 9.54166e-015 1.49089e-016 -3.97569e-016 -0 6.4605e-016 0 3.18055e-015 5.96354e-016 0 3.18055e-015 8.94531e-016 -1.98785e-016 6.36111e-015 6.4605e-016 0 3.18055e-015 5.96354e-016 0 3.18055e-015 8.94531e-016 -1.98785e-016 6.36111e-015 1.49089e-016 -3.97569e-016 -0 6.4605e-016 0 3.18055e-015 5.96354e-016 0 3.18055e-015 8.94531e-016 -1.98785e-016 6.36111e-015 6.4605e-016 0 3.18055e-015 5.96354e-016 0 3.18055e-015 8.94531e-016 -1.98785e-016 6.36111e-015 0 0 -0 -1.4496 0.0636048 -5.0245 -1.74811 1.20616 -16.8394 -1.19271e-015 1.98785e-016 -3.18055e-015 -3.97569e-016 1.98785e-016 -3.18055e-015 -2.98177e-016 1.98785e-016 -3.18055e-015 -2.98177e-016 3.97569e-016 -0 4.96962e-016 0 -6.36111e-015 -9.93923e-017 3.97569e-016 -0 -8.94531e-016 5.96354e-016 -0 -3.97569e-016 3.97569e-016 -0 -9.93923e-017 3.97569e-016 -0 -8.94531e-016 5.96354e-016 -0 -3.97569e-016 3.97569e-016 -0 4.96962e-016 0 -6.36111e-015 -9.93923e-017 3.97569e-016 -0 -8.94531e-016 5.96354e-016 -0 -3.97569e-016 3.97569e-016 -0 -9.93923e-017 3.97569e-016 -0 -8.94531e-016 5.96354e-016 -0 -3.97569e-016 3.97569e-016 -0 -4.66111 -0.998717 0.12318 0.00986924 1.54847 0.176523 4.65186 -0.572283 -0.254274 4.66111 -0.998765 -0.123176 -0.00986867 1.54869 -0.176537 -4.65186 -0.572453 0.25427 
1.8455 55.3679 10.5232 0 43.1471 -0 -1.34275 -1.05479 -1.89783 -2.72036 -2.06423 -3.8208 -2.72036 -2.06423 -3.8208 1.41246e-005 -0.0750434 7.07135e-006 -0.187405 0.445966 0.00140243 -10.4007 -7.86079 -42.7856 -41.0291 -4.59428 34.1188 -20.3197 17.4089 -51.1602 25.3939 -42.7304 -14.021 1.98785e-016 -1.19271e-015 -6.36111e-015 3.97569e-016 0 -3.18055e-015 -2.20695e-032 -3.97569e-016 -3.18055e-015 3.97569e-016 -3.97569e-016 -6.36111e-015 1.98785e-016 0 -3.18055e-015 1.98785e-016 0 -3.18055e-015 -2.20695e-032 -3.97569e-016 -3.18055e-015 1.98785e-016 0 -3.18055e-015 1.98785e-016 0 -3.18055e-015 -2.20695e-032 -3.97569e-016 -3.18055e-015 3.97569e-016 -3.97569e-016 -6.36111e-015 1.98785e-016 0 -3.18055e-015 1.98785e-016 0 -3.18055e-015 -2.20695e-032 -3.97569e-016 -3.18055e-015 1.98785e-016 0 -3.18055e-015 1.98785e-016 0 -3.18055e-015 -2.20695e-032 -3.97569e-016 -3.18055e-015 50.5971 -4.66819 -14.843 34.0457 -4.20885 -24.9802 35.1866 20.5793 -6.07611 46.3992 -22.7395 39.3145 1.19271e-015 -7.95139e-016 -5.51627e-015 1.19271e-015 -1.59028e-015 -5.46658e-015 -4.33292e-006 -3.70722e-006 4.25484e-006 5.96354e-016 0 -5.56597e-015 3.97569e-016 -7.95139e-016 -5.51627e-015 -1.98785e-016 -1.59028e-015 -5.46658e-015 -4.33292e-006 -3.70722e-006 4.25484e-006 3.97569e-016 -7.95139e-016 -5.51627e-015 -1.98785e-016 -1.59028e-015 -5.46658e-015 -4.33292e-006 -3.70722e-006 4.25484e-006 5.96354e-016 0 -5.56597e-015 3.97569e-016 -7.95139e-016 -5.51627e-015 -1.98785e-016 -1.59028e-015 -5.46658e-015 -4.33292e-006 -3.70722e-006 4.25484e-006 3.97569e-016 -7.95139e-016 -5.51627e-015 -1.98785e-016 -1.59028e-015 -5.46658e-015 -4.33292e-006 -3.70722e-006 4.25484e-006 64.343 -29.9412 26.2028 137.981 88.1719 -131.455 -66.7851 42.8325 73.2269 -64.3794 -29.9252 -26.2844 -136.607 88.1254 130.087 66.7094 42.8943 -73.1948 
1.73488 57.7837 11.1479 0 39.1127 -0 -1.28183 -0.880867 -1.76656 -2.59065 -1.72155 -3.55298 -2.59065 -1.72156 -3.55298 1.68388e-005 0.00109235 7.85111e-006 -0.175496 0.53469 0.00140521 -9.81133 -7.02912 -40.147 -38.6682 -4.39849 32.4159 -19.7158 17.9862 -46.1514 23.4117 -40.6034 -13.6222 -5.96354e-016 2.98177e-016 3.18055e-015 -1.59028e-015 5.96354e-016 3.18055e-015 -1.98785e-016 4.96962e-016 3.18055e-015 9.93923e-017 1.98785e-016 9.54166e-015 1.98785e-016 9.93923e-017 1.59028e-014 4.96962e-016 3.97569e-016 3.18055e-015 2.48481e-016 6.95746e-016 -3.18055e-015 1.98785e-016 9.93923e-017 1.59028e-014 4.96962e-016 3.97569e-016 3.18055e-015 2.48481e-016 6.95746e-016 -3.18055e-015 9.93923e-017 1.98785e-016 9.54166e-015 1.98785e-016 9.93923e-017 1.59028e-014 4.96962e-016 3.97569e-016 3.18055e-015 2.48481e-016 6.95746e-016 -3.18055e-015 1.98785e-016 9.93923e-017 1.59028e-014 4.96962e-016 3.97569e-016 3.18055e-015 2.48481e-016 6.95746e-016 -3.18055e-015 47.9293 -4.45857 -13.5911 32.1173 -3.95656 -23.1095 33.1666 19.5078 -6.72208 44.0311 -23.1433 35.4927 7.79747e-007 9.31516e-007 -3.31697e-006 -7.95139e-016 -3.18055e-015 -5.76476e-015 -7.95139e-016 3.18055e-015 -5.56597e-015 -2.42765e-031 1.59028e-015 8.74653e-015 7.79747e-007 9.31516e-007 -3.31697e-006 -7.95139e-016 1.59028e-015 5.96354e-016 -1.54487e-031 -3.18055e-015 -2.78299e-015 7.79747e-007 9.31516e-007 -3.31697e-006 -7.95139e-016 1.59028e-015 5.96354e-016 -1.54487e-031 -3.18055e-015 -2.78299e-015 -2.42765e-031 1.59028e-015 8.74653e-015 7.79747e-007 9.31516e-007 -3.31697e-006 -7.95139e-016 1.59028e-015 5.96354e-016 -1.54487e-031 -3.18055e-015 -2.78299e-015 7.79747e-007 9.31516e-007 -3.31697e-006 -7.95139e-016 1.59028e-015 5.96354e-016 -1.54487e-031 -3.18055e-015 -2.78299e-015 59.1828 -26.4524 23.5393 11.3041 84.9444 -5.49539 -58.701 44.1326 66.9162 -59.1795 -26.4247 -23.6131 -11.9685 84.9374 6.17098 58.6172 44.1864 -66.8712 
1.73305 57.7482 11.7911 0 37.6975 -0 -1.28375 -0.779095 -1.7594 -2.59115 -1.51821 -3.53629 -2.59116 -1.51821 -3.53629 0.000210226 0.0684513 1.75588e-005 -0.17466 0.643288 0.00140296 -10.1469 -6.4076 -40.0589 -38.6779 -4.40395 32.3915 -19.5605 17.538 -44.939 22.5604 -40.676 -14.3754 1.54058e-015 -1.49089e-015 1.27222e-014 -1.09332e-015 -2.68359e-015 6.36111e-015 -1.78906e-015 -1.19271e-015 1.27222e-014 8.44835e-016 -3.97569e-016 3.18055e-015 1.65521e-032 -2.98177e-016 3.18055e-015 -7.95139e-016 -6.95746e-016 1.27222e-014 -9.93923e-016 9.93923e-017 1.59028e-014 1.65521e-032 -2.98177e-016 3.18055e-015 -7.95139e-016 -6.95746e-016 1.27222e-014 -9.93923e-016 9.93923e-017 1.59028e-014 8.44835e-016 -3.97569e-016 3.18055e-015 1.65521e-032 -2.98177e-016 3.18055e-015 -7.95139e-016 -6.95746e-016 1.27222e-014 -9.93923e-016 9.93923e-017 1.59028e-014 1.65521e-032 -2.98177e-016 3.18055e-015 -7.95139e-016 -6.95746e-016 1.27222e-014 -9.93923e-016 9.93923e-017 1.59028e-014 48.1575 -4.50224 -13.2379 32.1856 -3.92573 -22.4565 33.1666 19.5077 -6.72211 45.2362 -23.5928 34.2398 -3.97569e-015 -1.59028e-015 2.56432e-014 -6.36111e-015 -4.77083e-015 2.88238e-014 -6.36111e-015 -3.18055e-015 3.22031e-014 1.59028e-015 0 -2.98177e-015 -3.18055e-015 -3.18055e-015 2.60408e-014 -7.15625e-015 -3.18055e-015 2.90226e-014 -4.77083e-015 -6.36111e-015 3.57812e-014 -3.18055e-015 -3.18055e-015 2.60408e-014 -7.15625e-015 -3.18055e-015 2.90226e-014 -4.77083e-015 -6.36111e-015 3.57812e-014 1.59028e-015 0 -2.98177e-015 -3.18055e-015 -3.18055e-015 2.60408e-014 -7.15625e-015 -3.18055e-015 2.90226e-014 -4.77083e-015 -6.36111e-015 3.57812e-014 -3.18055e-015 -3.18055e-015 2.60408e-014 -7.15625e-015 -3.18055e-015 2.90226e-014 -4.77083e-015 -6.36111e-015 3.57812e-014 58.9282 -24.445 22.9299 8.55548 83.9566 -2.87323 -57.6872 44.6655 66.2964 -58.8917 -24.4048 -23.003 -9.11229 83.9541 3.44258 57.5978 44.7178 -66.2454 
